<!DOCTYPE svg PUBLIC "-//W3C//DTD SVG 1.1//EN" "http://www.w3.org/Graphics/SVG/1.1/DTD/svg11.dtd">
<!-- Uploaded to: SVG Repo, www.svgrepo.com, Transformed by: SVG Repo Mixer Tools -->
<svg width="800px" height="800px" viewBox="0 0 64 64" version="1.1" xml:space="preserve" xmlns="http://www.w3.org/2000/svg" xmlns:xlink="http://www.w3.org/1999/xlink" fill="#fff" stroke="#fff">
<g id="SVGRepo_bgCarrier" stroke-width="0"/>
<g id="SVGRepo_tracerCarrier" stroke-linecap="round" stroke-linejoin="round"/>
<g id="SVGRepo_iconCarrier"> <style type="text/css"> .st0{fill:none;stroke:#EDEDED;stroke-width:0.25;stroke-miterlimit:10;} .st1{fill:none;stroke:#BDBDBD;stroke-width:0.25;stroke-miterlimit:10;} .st2{fill:none;stroke:#000000;stroke-width:2;stroke-miterlimit:10;} .st3{fill:#35C6F4;} .st4{fill:#EA386E;} .st5{fill:#7065AD;} .st6{fill:#FDBE57;} .st7{fill:#7BC89C;} .st8{fill:#FDD304;} .st9{fill:#27255F;} .st10{fill:#00AEEF;} </style> <g id="Layer_1"/> <g id="Layer_2"> <g> <path d="M49.4,11.7L24.2,18H9.4v3h-6v14h1h5v3h1H13l2.7,14h0.8h6.5l-2.7-14h3.8l25.1,6.3V43v-8h3.3V21h-3.3V11.7z M9.4,33h-4V23h4 V33z M20.7,50h-3.3l-2.3-12h3.3L20.7,50z M23.4,36H20h-7.4h-1.3v-1V21v-1h12V36z M47.4,21L47.4,21l0,14h0v6.7l-22-5.5V19.8l22-5.5 V21z M50.6,23v10h-1.3V23H50.6z"/> <rect height="2" width="4.8" x="54.9" y="27"/> <rect height="2" transform="matrix(0.9126 -0.4088 0.4088 0.9126 -3.5859 25.19)" width="5" x="54.7" y="20"/> <rect height="5" transform="matrix(0.4088 -0.9126 0.9126 0.4088 1.827 72.8513)" width="2" x="56.1" y="32.5"/> </g> </g> </g>
</svg>