<!DOCTYPE svg PUBLIC "-//W3C//DTD SVG 1.1//EN" "http://www.w3.org/Graphics/SVG/1.1/DTD/svg11.dtd">
<!-- Uploaded to: SVG Repo, www.svgrepo.com, Transformed by: SVG Repo Mixer Tools -->
<svg fill="#fff" height="800px" width="800px" version="1.1" id="Capa_1" xmlns="http://www.w3.org/2000/svg" xmlns:xlink="http://www.w3.org/1999/xlink" viewBox="0 0 179.709 179.709" xml:space="preserve" stroke="#fff">
<g id="SVGRepo_bgCarrier" stroke-width="0"/>
<g id="SVGRepo_tracerCarrier" stroke-linecap="round" stroke-linejoin="round"/>
<g id="SVGRepo_iconCarrier"> <g> <path d="M149.323,17.905h-20.039v-2.849c0-4.142-3.357-7.5-7.5-7.5h-6.195V7.5c0-4.142-3.357-7.5-7.5-7.5H71.227 c-4.142,0-7.5,3.358-7.5,7.5v0.057h-6.189c-4.143,0-7.5,3.358-7.5,7.5v2.849H30.386c-4.143,0-7.5,3.358-7.5,7.5v146.804 c0,4.142,3.357,7.5,7.5,7.5h118.938c4.142,0,7.5-3.358,7.5-7.5V25.405C156.823,21.263,153.466,17.905,149.323,17.905z M65.038,22.557h6.189c4.143,0,7.5-3.358,7.5-7.5V15h21.861v0.057c0,4.142,3.357,7.5,7.5,7.5h6.195v15.96H65.038V22.557z M141.823,164.709H37.886V32.905h12.152v13.111c0,4.142,3.357,7.5,7.5,7.5h64.246c4.143,0,7.5-3.358,7.5-7.5V32.905h12.539V164.709 z"/> <path d="M118.993,72.892H60.716c-4.143,0-7.5,3.358-7.5,7.5c0,4.142,3.357,7.5,7.5,7.5h58.277c4.143,0,7.5-3.358,7.5-7.5 C126.493,76.249,123.136,72.892,118.993,72.892z"/> <path d="M118.993,99.783H60.716c-4.143,0-7.5,3.358-7.5,7.5c0,4.142,3.357,7.5,7.5,7.5h58.277c4.143,0,7.5-3.358,7.5-7.5 C126.493,103.141,123.136,99.783,118.993,99.783z"/> <path d="M118.993,126.681H60.716c-4.143,0-7.5,3.358-7.5,7.5c0,4.143,3.357,7.5,7.5,7.5h58.277c4.143,0,7.5-3.357,7.5-7.5 C126.493,130.039,123.136,126.681,118.993,126.681z"/> </g> </g>
</svg>